<mxfile host="app.diagrams.net" modified="2023-03-25T09:28:51.948Z" agent="Mozilla/5.0 (Windows NT 10.0; Win64; x64) AppleWebKit/537.36 (KHTML, like Gecko) Chrome/111.0.0.0 Safari/537.36" etag="9jO87Rp3-GD-NITSUQUs" version="21.1.1" type="github">
  <diagram name="Page-1" id="zHi1wu4z1luUNuKQlYM-">
    <mxGraphModel dx="1134" dy="660" grid="1" gridSize="10" guides="1" tooltips="1" connect="1" arrows="1" fold="1" page="1" pageScale="1" pageWidth="850" pageHeight="1100" math="0" shadow="0">
      <root>
        <mxCell id="0" />
        <mxCell id="1" parent="0" />
        <mxCell id="5NLOcroXi70QPIZzgyUj-3" value="" style="edgeStyle=orthogonalEdgeStyle;rounded=0;orthogonalLoop=1;jettySize=auto;html=1;" edge="1" parent="1" source="5NLOcroXi70QPIZzgyUj-1" target="5NLOcroXi70QPIZzgyUj-2">
          <mxGeometry relative="1" as="geometry" />
        </mxCell>
        <mxCell id="5NLOcroXi70QPIZzgyUj-1" value="Login" style="whiteSpace=wrap;html=1;aspect=fixed;" vertex="1" parent="1">
          <mxGeometry x="100" y="240" width="80" height="80" as="geometry" />
        </mxCell>
        <mxCell id="5NLOcroXi70QPIZzgyUj-5" value="" style="edgeStyle=orthogonalEdgeStyle;rounded=0;orthogonalLoop=1;jettySize=auto;html=1;" edge="1" parent="1" source="5NLOcroXi70QPIZzgyUj-2" target="5NLOcroXi70QPIZzgyUj-4">
          <mxGeometry relative="1" as="geometry" />
        </mxCell>
        <mxCell id="5NLOcroXi70QPIZzgyUj-2" value="Dasboard" style="rhombus;whiteSpace=wrap;html=1;" vertex="1" parent="1">
          <mxGeometry x="260" y="240" width="80" height="80" as="geometry" />
        </mxCell>
        <mxCell id="5NLOcroXi70QPIZzgyUj-4" value="sales&lt;br&gt;(list of invoices)" style="whiteSpace=wrap;html=1;" vertex="1" parent="1">
          <mxGeometry x="410" y="250" width="120" height="60" as="geometry" />
        </mxCell>
        <mxCell id="5NLOcroXi70QPIZzgyUj-6" value="" style="endArrow=classic;startArrow=classic;html=1;rounded=0;" edge="1" parent="1">
          <mxGeometry width="50" height="50" relative="1" as="geometry">
            <mxPoint x="360" y="270" as="sourcePoint" />
            <mxPoint x="410" y="220" as="targetPoint" />
          </mxGeometry>
        </mxCell>
        <mxCell id="5NLOcroXi70QPIZzgyUj-7" value="products&lt;br&gt;(product-list)" style="rounded=0;whiteSpace=wrap;html=1;" vertex="1" parent="1">
          <mxGeometry x="410" y="180" width="120" height="60" as="geometry" />
        </mxCell>
        <mxCell id="5NLOcroXi70QPIZzgyUj-8" value="" style="endArrow=classic;startArrow=classic;html=1;rounded=0;entryX=0;entryY=0.5;entryDx=0;entryDy=0;" edge="1" parent="1" target="5NLOcroXi70QPIZzgyUj-9">
          <mxGeometry width="50" height="50" relative="1" as="geometry">
            <mxPoint x="360" y="290" as="sourcePoint" />
            <mxPoint x="400" y="360" as="targetPoint" />
            <Array as="points" />
          </mxGeometry>
        </mxCell>
        <mxCell id="5NLOcroXi70QPIZzgyUj-9" value="Accounts" style="rounded=0;whiteSpace=wrap;html=1;" vertex="1" parent="1">
          <mxGeometry x="410" y="320" width="120" height="60" as="geometry" />
        </mxCell>
        <mxCell id="5NLOcroXi70QPIZzgyUj-10" value="Statistics" style="rounded=0;whiteSpace=wrap;html=1;" vertex="1" parent="1">
          <mxGeometry x="410" y="390" width="120" height="60" as="geometry" />
        </mxCell>
        <mxCell id="5NLOcroXi70QPIZzgyUj-11" value="Role Management&lt;br&gt;(super admin)" style="rounded=0;whiteSpace=wrap;html=1;" vertex="1" parent="1">
          <mxGeometry x="410" y="460" width="120" height="60" as="geometry" />
        </mxCell>
        <mxCell id="5NLOcroXi70QPIZzgyUj-12" value="Settings" style="rounded=0;whiteSpace=wrap;html=1;" vertex="1" parent="1">
          <mxGeometry x="410" y="530" width="120" height="60" as="geometry" />
        </mxCell>
        <mxCell id="5NLOcroXi70QPIZzgyUj-13" value="Stock In" style="rounded=0;whiteSpace=wrap;html=1;" vertex="1" parent="1">
          <mxGeometry x="410" y="110" width="120" height="60" as="geometry" />
        </mxCell>
        <mxCell id="5NLOcroXi70QPIZzgyUj-14" value="Vendors" style="rounded=0;whiteSpace=wrap;html=1;" vertex="1" parent="1">
          <mxGeometry x="410" y="600" width="120" height="60" as="geometry" />
        </mxCell>
        <mxCell id="5NLOcroXi70QPIZzgyUj-15" value="Customers" style="rounded=0;whiteSpace=wrap;html=1;" vertex="1" parent="1">
          <mxGeometry x="410" y="680" width="120" height="60" as="geometry" />
        </mxCell>
        <mxCell id="5NLOcroXi70QPIZzgyUj-16" value="cart" style="ellipse;whiteSpace=wrap;html=1;aspect=fixed;" vertex="1" parent="1">
          <mxGeometry x="430" y="760" width="80" height="80" as="geometry" />
        </mxCell>
        <mxCell id="5NLOcroXi70QPIZzgyUj-17" value="Expanses" style="rounded=0;whiteSpace=wrap;html=1;" vertex="1" parent="1">
          <mxGeometry x="410" y="40" width="120" height="60" as="geometry" />
        </mxCell>
      </root>
    </mxGraphModel>
  </diagram>
</mxfile>
